<?xml version="1.0" encoding="UTF-8" standalone="no"?>
<svg
   inkscape:version="1.2.2 (b0a8486541, 2022-12-01)"
   sodipodi:docname="scratchcat-logo-wit.svg"
   id="svg6"
   version="1.1"
   viewBox="0 0 900 900"
   height="900pt"
   width="900pt"
   xmlns:inkscape="http://www.inkscape.org/namespaces/inkscape"
   xmlns:sodipodi="http://sodipodi.sourceforge.net/DTD/sodipodi-0.dtd"
   xmlns="http://www.w3.org/2000/svg"
   xmlns:svg="http://www.w3.org/2000/svg"
   xmlns:rdf="http://www.w3.org/1999/02/22-rdf-syntax-ns#"
   xmlns:cc="http://creativecommons.org/ns#"
   xmlns:dc="http://purl.org/dc/elements/1.1/">
  <metadata
     id="metadata12">
    <rdf:RDF>
      <cc:Work
         rdf:about="">
        <dc:format>image/svg+xml</dc:format>
        <dc:type
           rdf:resource="http://purl.org/dc/dcmitype/StillImage" />
      </cc:Work>
    </rdf:RDF>
  </metadata>
  <defs
     id="defs10" />
  <sodipodi:namedview
     inkscape:current-layer="svg6"
     inkscape:window-maximized="1"
     inkscape:window-y="29"
     inkscape:window-x="0"
     inkscape:cy="600.81633"
     inkscape:cx="550.20408"
     inkscape:zoom="0.6125"
     showgrid="false"
     id="namedview8"
     inkscape:window-height="1009"
     inkscape:window-width="1920"
     inkscape:pageshadow="2"
     inkscape:pageopacity="0"
     guidetolerance="10"
     gridtolerance="10"
     objecttolerance="10"
     borderopacity="1"
     bordercolor="#666666"
     pagecolor="#ffffff"
     inkscape:showpageshadow="2"
     inkscape:pagecheckerboard="0"
     inkscape:deskcolor="#d1d1d1"
     inkscape:document-units="pt" />
  <g
     style="fill:#ffffff;fill-opacity:1"
     id="#ffffffff"
     transform="translate(-10.985,38.389776)">
    <path
       style="fill:#ffffff;fill-opacity:1"
       id="path3"
       d="m 739.17,137.41 c 8.63,-2.41 18.01,-4.66 26.76,-1.48 10.04,2.93 16.35,12.65 18.62,22.39 3.83,15.74 1.32,32.15 -1.64,47.81 -7.34,31.45 -18.61,61.96 -32.93,90.89 -2.32,5.01 -5.56,9.62 -7.23,14.92 -1.17,4.63 1.34,8.86 3.93,12.47 8.84,13.4 15.24,28.27 20.15,43.51 0.25,2.62 3.04,2.84 5.1,2.54 23.27,-1.72 46.94,2.16 68.4,11.33 4.81,2.04 9.67,4.1 14.03,7.02 -17.39,-2.92 -34.83,-5.61 -52.4,-7.1 -10.4,-0.29 -20.88,-1.91 -31.22,-0.06 1.8,6.94 2.54,14.11 4.14,21.08 8.68,1.43 17.59,1.99 26.13,4.34 17.01,4.53 33.43,12.68 46.15,24.99 -23.07,-9.25 -46.6,-18.51 -71.55,-20.94 0.63,16.63 0.28,33.44 -3.06,49.8 -7.12,38.66 -27.38,73.97 -53.85,102.67 -23.83,26.11 -53.2,46.77 -84.75,62.51 -47.36,23.88 -100.12,36.01 -152.95,38.45 -24.08,0.58 -48.34,0.16 -72.14,-3.7 -0.27,-1.67 1.08,-2.94 1.8,-4.29 3.88,-5.77 7.66,-11.6 11.42,-17.45 6.87,-11.25 17.76,-19.34 24.49,-30.69 5.43,-9.22 11.46,-18.17 19.02,-25.8 7.23,-7.21 12.48,-16.12 19.82,-23.22 1.98,-2 4.22,-3.75 5.95,-5.98 2.77,-3.74 4.44,-8.17 7.3,-11.85 2.46,-3.26 6.69,-4.53 9.16,-7.77 1.74,-2.14 1.29,-5.04 1.49,-7.59 6.78,-5.99 12.57,-13.09 16.86,-21.07 3.88,-7.21 10.89,-11.86 15.65,-18.39 6.1,-8.52 14.05,-15.89 17.91,-25.85 8.13,-2 10.55,-10.84 16.46,-15.7 6.68,-5.78 11.81,-13.1 16.22,-20.7 2.87,-5 7.67,-8.38 11.96,-12.06 3.12,-2.66 5.32,-6.16 7.43,-9.62 10.37,-16.52 24.79,-29.91 36.34,-45.52 -13.17,8.84 -26.46,17.78 -37.62,29.16 -5.27,5.49 -12.54,8.76 -17.01,15.07 -5.1,6.91 -13.65,10.35 -18.29,17.65 -1.78,2.57 -2.48,6.1 -5.55,7.55 -15.13,9.22 -25.46,23.94 -36.69,37.23 -2.41,3.02 -6.21,4.07 -9.89,4.43 0.21,3.95 1.98,9.05 -1.51,12.1 -15.09,12.32 -23.38,30.51 -36.05,44.98 -1.76,1.22 -3.86,1.97 -5.37,3.53 -4.29,5.06 -2.84,12.79 -7.58,17.59 -2.58,2.99 -6.82,2.86 -10.4,3.4 0.85,2.27 1.85,4.5 2.77,6.75 -6.66,2.71 -8.37,10.13 -11.53,15.83 -1.75,3.5 -5.79,5.16 -7.16,8.92 -7.56,16.11 -18.54,30.29 -26.59,46.13 -5.02,10.9 -10.15,21.75 -16.09,32.18 1.4,0.48 2.9,0.77 4.23,1.47 -0.03,0.19 -0.08,0.57 -0.11,0.76 -5.12,7.44 -9.97,15.08 -14.9,22.65 -1.01,1.54 -2.28,2.89 -3.59,4.18 -0.51,-3.83 1.99,-6.84 3.62,-10.01 3.35,-6.25 6.8,-12.45 10.2,-18.67 -23.15,-3.31 -45.89,-9.13 -68.04,-16.6 -6.07,9.33 -12.16,18.68 -18.68,27.7 0.1,-1.79 -0.34,-3.74 0.54,-5.39 4.34,-8.01 8.4,-16.17 12.31,-24.39 -24.76,-9.26 -48.8,-20.78 -70.71,-35.66 l -0.61,1.05 c 0.05,-1.25 0.12,-2.49 0.21,-3.72 4.51,-6.54 8.48,-13.48 13.49,-19.67 6.6,-8.15 12.77,-16.63 19.07,-25.01 7.82,-10.06 18.23,-18.39 23.28,-30.39 1.41,-2.68 1.57,-6.15 4.1,-8.11 3.28,-3.15 7.9,-4.62 10.75,-8.22 2.22,-2.67 1.38,-6.32 1.78,-9.48 1.8,-2.18 4.4,-3.48 6.49,-5.33 8.03,-6.97 14.3,-15.65 21.73,-23.2 2.41,-2.59 5.96,-3.33 9.35,-3.48 -0.97,-3.36 -1.95,-7.5 0.76,-10.33 5.22,-5.74 8.2,-13.05 13.05,-19.07 2.77,-3.57 7.71,-5.02 9.64,-9.32 2.15,-3.8 1.85,-8.72 5.04,-11.96 4.98,-5.68 11.57,-9.95 15.49,-16.54 1.82,-2.88 2.56,-6.42 5.11,-8.82 3.01,-2.89 4.63,-6.8 7.04,-10.14 1.41,-1.93 3.92,-2.5 5.6,-4.09 1.76,-3.66 1.76,-8.39 5.08,-11.16 3.04,-1.63 6.47,-2.64 9.1,-4.96 5.23,-4.24 7.86,-10.61 10.4,-16.64 1.35,-3.46 4.95,-5.03 7.72,-7.16 5.1,-3.55 9.62,-8.78 10.31,-15.17 0.5,-3.1 0.35,-6.58 2.27,-9.23 2.28,-2.21 5.41,0.14 8.09,0.11 3.88,-3.7 3.73,-9.52 6.43,-13.91 6.4,-2.09 11.47,-6.8 15.6,-11.96 9.9,-12.85 18.58,-26.63 28.9,-39.16 13.97,-16.27 28.59,-31.98 42.41,-48.39 -5.28,-1.33 -10.45,-3.03 -15.78,-4.15 -1.72,2.12 -3.23,4.41 -4.25,6.96 -0.54,0.94 -0.73,2.28 -1.9,2.66 -1.29,-0.38 -2.55,-0.8 -3.79,-1.28 -3.98,3.98 -8.07,7.85 -12.04,11.85 -2.87,2.85 -6.11,5.66 -10.17,6.53 -2.68,0.69 -5.39,-0.19 -8.02,-0.62 0.81,6.24 -0.37,13.17 -5.25,17.55 -3.32,3.56 -8.96,3.5 -12.02,7.34 -1.44,2.48 -1.07,5.46 -1.2,8.21 -3.66,1.52 -7.57,2.91 -10.18,6.06 -3.56,4.21 -8.67,6.55 -12.55,10.39 -7.36,7.1 -12.71,16.04 -20.46,22.77 -6.5,4.96 -9.13,13.29 -15.32,18.57 -2.58,2.11 -6.16,2.97 -8.06,5.87 -2.34,3.64 -2.62,8.28 -5.33,11.74 -4.91,6.34 -11.56,11.08 -16.63,17.28 -2.99,3.59 -3.73,8.65 -7.17,11.89 -2.56,2.56 -6.37,1.42 -9.57,1.52 -1.19,6.32 -0.96,13.13 -4.08,18.94 -2.37,3.81 -7.28,4.5 -10.39,7.51 -6.38,5.26 -9.36,13.16 -12.54,20.52 -2.66,3.33 -6.87,5.05 -9.62,8.36 -4.21,4.27 -6.39,10.21 -6.73,16.14 -0.26,2.52 -0.07,5.35 -1.77,7.45 -2.39,0.79 -4.91,-0.3 -7.34,-0.27 -3.77,3.35 -2.98,9.17 -5.6,13.26 -1.32,3.08 -4.81,3.87 -7.27,5.69 -9.96,11.71 -16.42,25.81 -23.82,39.15 -4.33,7.85 -9.47,15.21 -14.3,22.75 -2.55,4.08 -6.54,7.24 -8.02,11.96 -2.97,8.21 -7.17,15.9 -11.72,23.33 -8.22,13.52 -15.39,27.64 -22.58,41.73 2.03,1.46 4.07,2.9 6.11,4.37 l 0.77,-1.19 c -0.45,1.51 -0.7,3.16 -1.64,4.48 -5.78,8.64 -11.3,17.45 -17.05,26.12 -3.36,4.74 -5.67,10.83 -11.59,12.98 7.82,-15.47 15.27,-31.11 23.06,-46.59 -28.39,-20.44 -53.39,-46.07 -71.34,-76.21 -13.94,-23.54 -22.99,-49.98 -26.3,-77.14 -1.72,-11.99 -1.66,-24.2 -0.4,-36.23 -22.85,1.93 -44.88,9.1 -66.01,17.72 -3.26,1.38 -6.47,2.89 -9.86,3.93 20.32,-19.14 48.53,-29.03 76.26,-29.01 1.18,-7.21 2.39,-14.39 3.94,-21.53 -13.52,-1.69 -27.12,-0.54 -40.66,0.25 -16.18,1.69 -32.32,3.81 -48.34,6.66 20.19,-11.74 43.53,-17.97 66.85,-18.49 7.91,-0.4 15.8,0.49 23.69,0.87 0.35,-0.15 1.05,-0.44 1.39,-0.58 1.46,-3.03 2.31,-6.31 3.44,-9.46 4.33,-12.02 9.88,-23.59 16.41,-34.56 1.45,-2.43 3.09,-4.75 4.18,-7.37 -1.14,-2.35 -2.69,-4.47 -4.04,-6.69 -7.91,-12.78 -13.69,-26.7 -19.46,-40.54 -12.59,-30.23 -23.53,-61.84 -25.3,-94.79 0.31,-10.86 1.44,-22.43 7.7,-31.67 5.47,-8.23 16,-11.6 25.5,-10.92 7.26,0.75 14.33,2.8 21.17,5.32 14.88,5.57 28.69,13.6 41.87,22.42 22.16,14.59 42.82,31.37 62.49,49.16 3.05,2.72 5.8,5.91 9.38,7.97 1.75,0.25 3.41,-0.57 5,-1.18 35.42,-16.07 73.61,-25.56 112.21,-29.72 46.97,-5.01 94.8,-1.76 140.69,9.41 15.78,-11.7 31.12,-24.02 47.4,-35.02 -10.2,13.41 -20.87,26.47 -31.59,39.48 12.06,3.5 23.86,7.87 35.42,12.75 2.88,1.02 6.11,2.76 9.16,1.33 4.48,-1.95 7.63,-5.86 11.29,-8.95 17.11,-15.41 35.06,-29.95 54.2,-42.77 16.45,-10.88 33.48,-21.5 52.51,-27.24 M 454.2,203.22 c -14.77,11.81 -29.7,23.56 -42.62,37.44 -6.54,6.76 -12.95,13.84 -20.94,18.93 -4.71,2.3 -3.43,8.68 -7.1,11.91 -2.44,1.93 -5.29,3.3 -7.62,5.37 -6.11,5.26 -10.48,12.19 -16.45,17.58 -15.6,14.21 -25.64,33.05 -38.45,49.56 -4.25,5.34 -4.94,12.54 -8.98,17.99 -2.41,3.4 -6.79,4.45 -9.53,7.5 -3.35,3.69 -5.1,8.44 -7.25,12.85 -10.73,23.16 -24.29,44.84 -36.81,67.04 -11.01,20 -20.76,40.69 -29.52,61.76 17.29,-24.49 33.23,-49.95 51.36,-73.83 7.54,-7.38 10.06,-18.87 19.37,-24.57 0.84,-2.97 1.52,-6.07 3.22,-8.69 2.69,-4.31 6.83,-7.38 10.25,-11.06 7.32,-7.81 12.34,-17.42 19.52,-25.33 3.16,-3.54 6.75,-6.83 8.98,-11.08 1.64,-3.44 2.45,-7.28 4.63,-10.46 3.7,-5.52 9.14,-9.72 12.19,-15.72 1.67,-3.2 4.64,-5.39 6.68,-8.32 1.71,-2.53 1.47,-5.77 2.51,-8.54 4.36,-4.71 10.95,-6.11 15.79,-10.15 2.76,-2.33 3.25,-6.11 4.79,-9.18 1.29,-2.03 3.08,-3.67 4.58,-5.54 9.45,-11.65 15.88,-25.64 26.7,-36.19 4.41,-3.99 8.1,-8.68 11.24,-13.73 9.03,-14.7 21.7,-26.64 31.95,-40.41 -3.41,0.43 -5.89,2.89 -8.49,4.87 m 152.88,84.95 c -10.55,9.53 -21.38,18.83 -33.27,26.67 -5.38,3.48 -10.69,7.22 -14.95,12.06 -3.02,3.35 -4.95,7.56 -8.25,10.68 -3.92,4.19 -9.67,6.45 -12.52,11.63 -6.87,10.63 -17.73,19.35 -30.64,20.73 0.61,2.61 1.58,5.39 0.53,8.03 -1.91,5.87 -7.44,9.25 -11.21,13.81 -4.16,5.09 -10.05,8.78 -12.98,14.84 -1.44,3.15 -2.59,6.56 -5.08,9.09 -6.72,7.25 -14.33,13.72 -20.21,21.73 -3.5,4.62 -5.52,10.21 -9.42,14.53 -5.62,6.38 -12.88,11.85 -15.78,20.14 -0.82,1.84 -1.11,4.26 -3.16,5.2 -4.76,2.87 -8.9,7.22 -10.33,12.72 -1.22,4.12 -1.6,8.88 -4.76,12.09 -2.96,2.2 -6.84,0.92 -10.18,0.55 0.81,3.35 1.76,7.06 0.24,10.37 -1.27,3.53 -5.21,4.91 -7.19,7.93 -9.7,12.83 -17.11,27.16 -24.94,41.15 -5.39,9.83 -11.66,19.15 -17.22,28.88 -9.33,16.43 -17.6,33.44 -26.08,50.31 1.75,0.61 3.5,1.21 5.26,1.83 9.62,-14.71 19.09,-29.57 29.78,-43.53 7.43,-9.25 16.19,-17.59 21.75,-28.19 1.1,-1.98 2.01,-4.09 3.39,-5.89 3.44,-0.55 6.74,0.93 10.01,1.79 -1.03,-5.05 -1.45,-10.6 1.11,-15.29 3.5,-6.03 9.14,-10.37 14.45,-14.7 2.57,-2.14 3.9,-5.28 5.59,-8.07 5.13,-8.69 12.32,-15.85 18.55,-23.71 3.36,-4.31 8.48,-7.38 10.28,-12.78 2.36,-6.87 6.46,-13.18 12.16,-17.74 3.71,-2.8 5.17,-7.67 9.13,-10.18 2.72,-1.54 5.73,0.2 8.34,1.17 -0.63,-6.96 0.36,-14.38 4.39,-20.26 2.8,-4.42 7.08,-7.53 11,-10.88 3.73,-3.24 5.06,-8.15 7.52,-12.23 3.62,-2.73 7.99,-4.87 10.19,-9.07 2.42,-3.65 2.27,-8.21 3.97,-12.12 1.71,-3.54 6.73,-2 8.92,-5.01 1.79,-2.42 2.25,-5.57 4.12,-7.94 1.66,-1.67 3.69,-2.9 5.51,-4.38 8.44,-6.67 14.58,-15.7 20.2,-24.76 2.43,-3.79 4.92,-7.91 9.05,-10.07 2.55,-1.61 5.64,-0.68 8.42,-0.41 -0.21,-2.25 -0.56,-4.52 -0.31,-6.77 0.94,-3.26 3.35,-5.74 5.27,-8.43 12.16,-16.34 25.27,-31.94 38.81,-47.14 2.9,-3.27 6.38,-6.23 7.95,-10.44 -6.24,3.34 -11.93,7.61 -17.41,12.06 z"
       opacity="1"
       fill="#ffffff" />
  </g>
</svg>
